{
    "asset" : {
        "generator" : "Khronos glTF Blender I/O v1.1.46",
        "version" : "2.0"
    },
    "scene" : 0,
    "scenes" : [
        {
            "name" : "Scene",
            "nodes" : [
                0,
                1,
                2
            ]
        }
    ],
    "nodes" : [
        {
            "mesh" : 0,
            "name" : "tyre1",
            "rotation" : [
                0.006706236395984888,
                0.0027361565735191107,
                -0.9999617338180542,
                -0.004906005691736937
            ],
            "scale" : [
                0.016461560502648354,
                0.016461605206131935,
                0.016461608931422234
            ],
            "translation" : [
                -0.21227985620498657,
                -2.7093818187713623,
                0.24319115281105042
            ]
        },
        {
            "mesh" : 1,
            "name" : "tyre1.001",
            "rotation" : [
                0.006706236395984888,
                0.0027361565735191107,
                -0.9999617338180542,
                -0.004906005691736937
            ],
            "scale" : [
                0.016461560502648354,
                0.016461605206131935,
                0.016461608931422234
            ],
            "translation" : [
                -0.21227985620498657,
                -2.725712537765503,
                1.5169936418533325
            ]
        },
        {
            "mesh" : 2,
            "name" : "tyre1.002",
            "rotation" : [
                0.006706236395984888,
                0.0027361565735191107,
                -0.9999617338180542,
                -0.004906005691736937
            ],
            "scale" : [
                0.016461560502648354,
                0.016461605206131935,
                0.016461608931422234
            ],
            "translation" : [
                -0.21227985620498657,
                -2.7093818187713623,
                2.7907962799072266
            ]
        }
    ],
    "materials" : [
        {
            "doubleSided" : true,
            "emissiveFactor" : [
                0,
                0,
                0
            ],
            "name" : "tyre.005",
            "pbrMetallicRoughness" : {
                "baseColorFactor" : [
                    0.01954413764178753,
                    0.01954413764178753,
                    0.01954413764178753,
                    1
                ],
                "metallicFactor" : 0,
                "roughnessFactor" : 0.5
            }
        },
        {
            "doubleSided" : true,
            "emissiveFactor" : [
                0,
                0,
                0
            ],
            "name" : "grey.005",
            "pbrMetallicRoughness" : {
                "baseColorFactor" : [
                    0.45641106367111206,
                    0.43965715169906616,
                    0.4564110338687897,
                    1
                ],
                "metallicFactor" : 0,
                "roughnessFactor" : 0.5
            }
        },
        {
            "doubleSided" : true,
            "emissiveFactor" : [
                0,
                0,
                0
            ],
            "name" : "redcolor.005",
            "pbrMetallicRoughness" : {
                "baseColorFactor" : [
                    0.4188535213470459,
                    0.0016858231974765658,
                    0.0019515788881108165,
                    1
                ],
                "metallicFactor" : 0,
                "roughnessFactor" : 0.5
            }
        }
    ],
    "meshes" : [
        {
            "name" : "tyre1",
            "primitives" : [
                {
                    "attributes" : {
                        "POSITION" : 0,
                        "NORMAL" : 1,
                        "TEXCOORD_0" : 2
                    },
                    "indices" : 3,
                    "material" : 0
                },
                {
                    "attributes" : {
                        "POSITION" : 4,
                        "NORMAL" : 5,
                        "TEXCOORD_0" : 6
                    },
                    "indices" : 7,
                    "material" : 1
                },
                {
                    "attributes" : {
                        "POSITION" : 8,
                        "NORMAL" : 9,
                        "TEXCOORD_0" : 10
                    },
                    "indices" : 11,
                    "material" : 2
                }
            ]
        },
        {
            "name" : "tyre1.001",
            "primitives" : [
                {
                    "attributes" : {
                        "POSITION" : 12,
                        "NORMAL" : 13,
                        "TEXCOORD_0" : 14
                    },
                    "indices" : 3,
                    "material" : 0
                },
                {
                    "attributes" : {
                        "POSITION" : 15,
                        "NORMAL" : 16,
                        "TEXCOORD_0" : 17
                    },
                    "indices" : 7,
                    "material" : 1
                },
                {
                    "attributes" : {
                        "POSITION" : 18,
                        "NORMAL" : 19,
                        "TEXCOORD_0" : 20
                    },
                    "indices" : 11,
                    "material" : 2
                }
            ]
        },
        {
            "name" : "tyre1.002",
            "primitives" : [
                {
                    "attributes" : {
                        "POSITION" : 21,
                        "NORMAL" : 22,
                        "TEXCOORD_0" : 23
                    },
                    "indices" : 3,
                    "material" : 0
                },
                {
                    "attributes" : {
                        "POSITION" : 24,
                        "NORMAL" : 25,
                        "TEXCOORD_0" : 26
                    },
                    "indices" : 7,
                    "material" : 1
                },
                {
                    "attributes" : {
                        "POSITION" : 27,
                        "NORMAL" : 28,
                        "TEXCOORD_0" : 29
                    },
                    "indices" : 11,
                    "material" : 2
                }
            ]
        }
    ],
    "accessors" : [
        {
            "bufferView" : 0,
            "componentType" : 5126,
            "count" : 1514,
            "max" : [
                -11.601041793823242,
                -156.73062133789062,
                18.745681762695312
            ],
            "min" : [
                -34.869041442871094,
                -225.137939453125,
                -49.82148361206055
            ],
            "type" : "VEC3"
        },
        {
            "bufferView" : 1,
            "componentType" : 5126,
            "count" : 1514,
            "type" : "VEC3"
        },
        {
            "bufferView" : 2,
            "componentType" : 5126,
            "count" : 1514,
            "type" : "VEC2"
        },
        {
            "bufferView" : 3,
            "componentType" : 5123,
            "count" : 1590,
            "type" : "SCALAR"
        },
        {
            "bufferView" : 4,
            "componentType" : 5126,
            "count" : 536,
            "max" : [
                -11.39649772644043,
                -168.92481994628906,
                6.472306251525879
            ],
            "min" : [
                -16.62606430053711,
                -212.84246826171875,
                -37.54801940917969
            ],
            "type" : "VEC3"
        },
        {
            "bufferView" : 5,
            "componentType" : 5126,
            "count" : 536,
            "type" : "VEC3"
        },
        {
            "bufferView" : 6,
            "componentType" : 5126,
            "count" : 536,
            "type" : "VEC2"
        },
        {
            "bufferView" : 7,
            "componentType" : 5123,
            "count" : 552,
            "type" : "SCALAR"
        },
        {
            "bufferView" : 8,
            "componentType" : 5126,
            "count" : 340,
            "max" : [
                -11.39649772644043,
                -181.26622009277344,
                -5.948729515075684
            ],
            "min" : [
                -16.373310089111328,
                -200.39981079101562,
                -25.127056121826172
            ],
            "type" : "VEC3"
        },
        {
            "bufferView" : 9,
            "componentType" : 5126,
            "count" : 340,
            "type" : "VEC3"
        },
        {
            "bufferView" : 10,
            "componentType" : 5126,
            "count" : 340,
            "type" : "VEC2"
        },
        {
            "bufferView" : 11,
            "componentType" : 5123,
            "count" : 372,
            "type" : "SCALAR"
        },
        {
            "bufferView" : 12,
            "componentType" : 5126,
            "count" : 1514,
            "max" : [
                -11.601041793823242,
                -156.73062133789062,
                18.745681762695312
            ],
            "min" : [
                -34.869041442871094,
                -225.137939453125,
                -49.82148361206055
            ],
            "type" : "VEC3"
        },
        {
            "bufferView" : 13,
            "componentType" : 5126,
            "count" : 1514,
            "type" : "VEC3"
        },
        {
            "bufferView" : 14,
            "componentType" : 5126,
            "count" : 1514,
            "type" : "VEC2"
        },
        {
            "bufferView" : 15,
            "componentType" : 5126,
            "count" : 536,
            "max" : [
                -11.39649772644043,
                -168.92481994628906,
                6.472306251525879
            ],
            "min" : [
                -16.62606430053711,
                -212.84246826171875,
                -37.54801940917969
            ],
            "type" : "VEC3"
        },
        {
            "bufferView" : 16,
            "componentType" : 5126,
            "count" : 536,
            "type" : "VEC3"
        },
        {
            "bufferView" : 17,
            "componentType" : 5126,
            "count" : 536,
            "type" : "VEC2"
        },
        {
            "bufferView" : 18,
            "componentType" : 5126,
            "count" : 340,
            "max" : [
                -11.39649772644043,
                -181.26622009277344,
                -5.948729515075684
            ],
            "min" : [
                -16.373310089111328,
                -200.39981079101562,
                -25.127056121826172
            ],
            "type" : "VEC3"
        },
        {
            "bufferView" : 19,
            "componentType" : 5126,
            "count" : 340,
            "type" : "VEC3"
        },
        {
            "bufferView" : 20,
            "componentType" : 5126,
            "count" : 340,
            "type" : "VEC2"
        },
        {
            "bufferView" : 21,
            "componentType" : 5126,
            "count" : 1514,
            "max" : [
                -11.601041793823242,
                -156.73062133789062,
                18.745681762695312
            ],
            "min" : [
                -34.869041442871094,
                -225.137939453125,
                -49.82148361206055
            ],
            "type" : "VEC3"
        },
        {
            "bufferView" : 22,
            "componentType" : 5126,
            "count" : 1514,
            "type" : "VEC3"
        },
        {
            "bufferView" : 23,
            "componentType" : 5126,
            "count" : 1514,
            "type" : "VEC2"
        },
        {
            "bufferView" : 24,
            "componentType" : 5126,
            "count" : 536,
            "max" : [
                -11.39649772644043,
                -168.92481994628906,
                6.472306251525879
            ],
            "min" : [
                -16.62606430053711,
                -212.84246826171875,
                -37.54801940917969
            ],
            "type" : "VEC3"
        },
        {
            "bufferView" : 25,
            "componentType" : 5126,
            "count" : 536,
            "type" : "VEC3"
        },
        {
            "bufferView" : 26,
            "componentType" : 5126,
            "count" : 536,
            "type" : "VEC2"
        },
        {
            "bufferView" : 27,
            "componentType" : 5126,
            "count" : 340,
            "max" : [
                -11.39649772644043,
                -181.26622009277344,
                -5.948729515075684
            ],
            "min" : [
                -16.373310089111328,
                -200.39981079101562,
                -25.127056121826172
            ],
            "type" : "VEC3"
        },
        {
            "bufferView" : 28,
            "componentType" : 5126,
            "count" : 340,
            "type" : "VEC3"
        },
        {
            "bufferView" : 29,
            "componentType" : 5126,
            "count" : 340,
            "type" : "VEC2"
        }
    ],
    "bufferViews" : [
        {
            "buffer" : 0,
            "byteLength" : 18168,
            "byteOffset" : 0
        },
        {
            "buffer" : 0,
            "byteLength" : 18168,
            "byteOffset" : 18168
        },
        {
            "buffer" : 0,
            "byteLength" : 12112,
            "byteOffset" : 36336
        },
        {
            "buffer" : 0,
            "byteLength" : 3180,
            "byteOffset" : 48448
        },
        {
            "buffer" : 0,
            "byteLength" : 6432,
            "byteOffset" : 51628
        },
        {
            "buffer" : 0,
            "byteLength" : 6432,
            "byteOffset" : 58060
        },
        {
            "buffer" : 0,
            "byteLength" : 4288,
            "byteOffset" : 64492
        },
        {
            "buffer" : 0,
            "byteLength" : 1104,
            "byteOffset" : 68780
        },
        {
            "buffer" : 0,
            "byteLength" : 4080,
            "byteOffset" : 69884
        },
        {
            "buffer" : 0,
            "byteLength" : 4080,
            "byteOffset" : 73964
        },
        {
            "buffer" : 0,
            "byteLength" : 2720,
            "byteOffset" : 78044
        },
        {
            "buffer" : 0,
            "byteLength" : 744,
            "byteOffset" : 80764
        },
        {
            "buffer" : 0,
            "byteLength" : 18168,
            "byteOffset" : 81508
        },
        {
            "buffer" : 0,
            "byteLength" : 18168,
            "byteOffset" : 99676
        },
        {
            "buffer" : 0,
            "byteLength" : 12112,
            "byteOffset" : 117844
        },
        {
            "buffer" : 0,
            "byteLength" : 6432,
            "byteOffset" : 129956
        },
        {
            "buffer" : 0,
            "byteLength" : 6432,
            "byteOffset" : 136388
        },
        {
            "buffer" : 0,
            "byteLength" : 4288,
            "byteOffset" : 142820
        },
        {
            "buffer" : 0,
            "byteLength" : 4080,
            "byteOffset" : 147108
        },
        {
            "buffer" : 0,
            "byteLength" : 4080,
            "byteOffset" : 151188
        },
        {
            "buffer" : 0,
            "byteLength" : 2720,
            "byteOffset" : 155268
        },
        {
            "buffer" : 0,
            "byteLength" : 18168,
            "byteOffset" : 157988
        },
        {
            "buffer" : 0,
            "byteLength" : 18168,
            "byteOffset" : 176156
        },
        {
            "buffer" : 0,
            "byteLength" : 12112,
            "byteOffset" : 194324
        },
        {
            "buffer" : 0,
            "byteLength" : 6432,
            "byteOffset" : 206436
        },
        {
            "buffer" : 0,
            "byteLength" : 6432,
            "byteOffset" : 212868
        },
        {
            "buffer" : 0,
            "byteLength" : 4288,
            "byteOffset" : 219300
        },
        {
            "buffer" : 0,
            "byteLength" : 4080,
            "byteOffset" : 223588
        },
        {
            "buffer" : 0,
            "byteLength" : 4080,
            "byteOffset" : 227668
        },
        {
            "buffer" : 0,
            "byteLength" : 2720,
            "byteOffset" : 231748
        }
    ],
    "buffers" : [
        {
            "byteLength" : 234468,
            "uri" : "data:application/octet-stream;base64,"
        }
    ]
}
